<?xml version="1.0" encoding="utf-8"?>
<!-- Generator: Adobe Illustrator 23.0.1, SVG Export Plug-In . SVG Version: 6.00 Build 0)  -->
<svg version="1.1" id="Layer_1" xmlns="http://www.w3.org/2000/svg" xmlns:xlink="http://www.w3.org/1999/xlink" x="0px" y="0px"
	 viewBox="0 0 1920 1080" style="enable-background:new 0 0 1920 1080;" xml:space="preserve">
<style type="text/css">
	.st0{fill:#CCCCCC;}
</style>
<path class="st0" d="M965.26,540.46c-0.58-1.11-3.55-3.52-3.55-3.52c0.57-0.83,0.9-1.84,0.9-2.94c0-2.8-2.17-5.07-4.84-5.07
	c-2.67,0-4.83,2.27-4.83,5.07c0,2.81,2.16,5.08,4.83,5.08c0.74,0,1.43-0.17,2.05-0.49c0,0,2.55,3.03,3.72,3.56
	C964.09,542.4,966.13,542.13,965.26,540.46z M957.93,536.47c-1.28,0-2.33-1.05-2.33-2.33c0-1.29,1.05-2.33,2.33-2.33
	c1.29,0,2.33,1.04,2.33,2.33C960.26,535.42,959.22,536.47,957.93,536.47z"/>
</svg>
